<?xml version="1.0" encoding="UTF-8"?>
<svg xmlns="http://www.w3.org/2000/svg" xmlns:xlink="http://www.w3.org/1999/xlink" width="649pt" height="544pt" viewBox="0 0 649 544" version="1.1">
<defs>
<filter id="alpha" filterUnits="objectBoundingBox" x="0%" y="0%" width="100%" height="100%">
  <feColorMatrix type="matrix" in="SourceGraphic" values="0 0 0 0 1 0 0 0 0 1 0 0 0 0 1 0 0 0 1 0"/>
</filter>
<mask id="mask0">
  <g filter="url(#alpha)">
<rect x="0" y="0" width="649" height="544" style="fill:rgb(0%,0%,0%);fill-opacity:0.101961;stroke:none;"/>
  </g>
</mask>
<clipPath id="clip1">
  <rect x="0" y="0" width="649" height="544"/>
</clipPath>
<g id="surface5" clip-path="url(#clip1)">
<path style=" stroke:none;fill-rule:nonzero;fill:rgb(14.117647%,74.117647%,78.823529%);fill-opacity:1;" d="M 65.777344 16.320312 C 41.371094 20.691406 13.34375 28.484375 3.472656 52.441406 C -5.550781 74.34375 5.039062 99.015625 12.164062 121.679688 C 19.183594 144.058594 22.824219 167.359375 22.96875 190.8125 C 23.152344 223.804688 16.726562 258.59375 29.777344 288.570312 C 44.496094 322.394531 80.933594 341.957031 93.703125 376.625 C 99.058594 391.160156 99.707031 407.066406 102.257812 422.429688 C 107.917969 456.464844 123.378906 488.613281 146.070312 513.515625 C 161.15625 530.070312 180.800781 543.964844 202.5625 544.296875 C 219.066406 544.554688 234.652344 537.058594 249.941406 530.496094 C 267.78125 522.847656 286.0625 516.277344 304.691406 510.832031 C 312.539062 508.542969 320.625 506.433594 328.742188 507.148438 C 344.382812 508.5 357.429688 519.988281 372.273438 525.394531 C 412.503906 539.992188 454.089844 508.273438 496.535156 504.925781 C 532.921875 502.054688 569.472656 520.363281 605.222656 512.71875 C 610.492188 511.589844 616.125 509.542969 618.886719 504.675781 C 623.457031 496.613281 617.785156 485.457031 621.851562 477.097656 C 625.917969 468.738281 636.890625 467.875 643.332031 461.515625 C 649.890625 455.039062 650.425781 443.863281 647.082031 435.070312 C 643.738281 426.28125 637.289062 419.277344 631.089844 412.433594 C 600.402344 378.523438 572.152344 342.488281 546.542969 304.59375 C 520.421875 265.945312 495.976562 220.484375 503.324219 173.648438 C 505.863281 157.53125 512.101562 142.277344 514.933594 126.214844 C 517.761719 110.152344 516.601562 91.960938 506.21875 79.835938 C 500.019531 72.59375 491.320312 68.410156 482.878906 64.421875 C 404.148438 27.234375 319.792969 -10.847656 234.550781 3.230469 C 220.671875 5.519531 206.9375 9.199219 192.898438 9.699219 C 172.574219 10.425781 153.449219 1.339844 133.601562 4.292969 C 111.066406 7.621094 88.292969 12.285156 65.777344 16.320312 Z M 65.777344 16.320312 "/>
</g>
<linearGradient id="linear0" gradientUnits="userSpaceOnUse" x1="516.59" y1="775.99" x2="516.59" y2="47.27" gradientTransform="matrix(0.675338,0,0,0.675776,-80.682653,-31.94395)">
<stop offset="0" style="stop-color:rgb(50.196078%,50.196078%,50.196078%);stop-opacity:0.25098;"/>
<stop offset="0.54" style="stop-color:rgb(50.196078%,50.196078%,50.196078%);stop-opacity:0.121569;"/>
<stop offset="1" style="stop-color:rgb(50.196078%,50.196078%,50.196078%);stop-opacity:0.101961;"/>
</linearGradient>
<mask id="mask1">
  <g filter="url(#alpha)">
<rect x="0" y="0" width="649" height="544" style="fill:rgb(0%,0%,0%);fill-opacity:0.2;stroke:none;"/>
  </g>
</mask>
<clipPath id="clip2">
  <rect x="0" y="0" width="649" height="544"/>
</clipPath>
<g id="surface8" clip-path="url(#clip2)">
<path style=" stroke:none;fill-rule:nonzero;fill:rgb(14.117647%,74.117647%,78.823529%);fill-opacity:1;" d="M 383.78125 165.808594 L 336.304688 165.808594 C 331.886719 165.808594 328.300781 162.222656 328.300781 157.800781 L 328.300781 110.292969 C 328.300781 105.871094 331.886719 102.285156 336.304688 102.285156 L 383.78125 102.285156 C 388.199219 102.285156 391.785156 105.871094 391.785156 110.292969 L 391.785156 157.800781 C 391.785156 162.222656 388.199219 165.808594 383.78125 165.808594 Z M 383.78125 165.808594 "/>
</g>
<mask id="mask2">
  <g filter="url(#alpha)">
<rect x="0" y="0" width="649" height="544" style="fill:rgb(0%,0%,0%);fill-opacity:0.2;stroke:none;"/>
  </g>
</mask>
<clipPath id="clip3">
  <rect x="0" y="0" width="649" height="544"/>
</clipPath>
<g id="surface11" clip-path="url(#clip3)">
<path style=" stroke:none;fill-rule:nonzero;fill:rgb(14.117647%,74.117647%,78.823529%);fill-opacity:1;" d="M 383.78125 277.988281 L 336.304688 277.988281 C 331.886719 277.988281 328.300781 274.402344 328.300781 269.980469 L 328.300781 222.472656 C 328.300781 218.050781 331.886719 214.464844 336.304688 214.464844 L 383.78125 214.464844 C 388.199219 214.464844 391.785156 218.050781 391.785156 222.472656 L 391.785156 269.980469 C 391.785156 274.402344 388.199219 277.988281 383.78125 277.988281 Z M 383.78125 277.988281 "/>
</g>
<mask id="mask3">
  <g filter="url(#alpha)">
<rect x="0" y="0" width="649" height="544" style="fill:rgb(0%,0%,0%);fill-opacity:0.2;stroke:none;"/>
  </g>
</mask>
<clipPath id="clip4">
  <rect x="0" y="0" width="649" height="544"/>
</clipPath>
<g id="surface14" clip-path="url(#clip4)">
<path style=" stroke:none;fill-rule:nonzero;fill:rgb(14.117647%,74.117647%,78.823529%);fill-opacity:1;" d="M 244.457031 214.464844 L 291.933594 214.464844 C 296.355469 214.464844 299.9375 218.050781 299.9375 222.472656 L 299.9375 269.980469 C 299.9375 274.402344 296.355469 277.988281 291.933594 277.988281 L 244.457031 277.988281 C 240.039062 277.988281 236.457031 274.402344 236.457031 269.980469 L 236.457031 222.472656 C 236.457031 218.050781 240.039062 214.464844 244.457031 214.464844 Z M 244.457031 214.464844 "/>
</g>
<linearGradient id="linear1" gradientUnits="userSpaceOnUse" x1="802.23" y1="799.75" x2="802.23" y2="247.72" gradientTransform="matrix(0.675338,0,0,0.675776,-80.682653,-31.94395)">
<stop offset="0" style="stop-color:rgb(50.196078%,50.196078%,50.196078%);stop-opacity:0.25098;"/>
<stop offset="0.54" style="stop-color:rgb(50.196078%,50.196078%,50.196078%);stop-opacity:0.121569;"/>
<stop offset="1" style="stop-color:rgb(50.196078%,50.196078%,50.196078%);stop-opacity:0.101961;"/>
</linearGradient>
<mask id="mask4">
  <g filter="url(#alpha)">
<rect x="0" y="0" width="649" height="544" style="fill:rgb(0%,0%,0%);fill-opacity:0.0509804;stroke:none;"/>
  </g>
</mask>
<clipPath id="clip5">
  <rect x="0" y="0" width="649" height="544"/>
</clipPath>
<g id="surface17" clip-path="url(#clip5)">
<path style=" stroke:none;fill-rule:nonzero;fill:rgb(0%,0%,0%);fill-opacity:1;" d="M 439.515625 243.65625 C 439.515625 243.65625 408.558594 315.34375 416.074219 330.832031 C 416.074219 330.832031 428.460938 325.96875 430.257812 326.851562 C 432.054688 327.738281 449.714844 234.367188 449.714844 234.367188 Z M 439.515625 243.65625 "/>
</g>
<mask id="mask5">
  <g filter="url(#alpha)">
<rect x="0" y="0" width="649" height="544" style="fill:rgb(0%,0%,0%);fill-opacity:0.0509804;stroke:none;"/>
  </g>
</mask>
<clipPath id="clip6">
  <rect x="0" y="0" width="649" height="544"/>
</clipPath>
<g id="surface20" clip-path="url(#clip6)">
<path style=" stroke:none;fill-rule:nonzero;fill:rgb(0%,0%,0%);fill-opacity:1;" d="M 422.269531 316.667969 C 422.269531 316.667969 425.363281 370.65625 429.347656 378.164062 C 433.332031 385.671875 448.363281 408.695312 448.363281 408.695312 C 448.363281 408.695312 465.613281 421.089844 466.496094 424.183594 C 467.382812 427.28125 481.53125 437.902344 481.53125 437.902344 L 482.414062 444.101562 C 482.414062 444.101562 505.855469 442.75 504.523438 434.808594 C 503.195312 426.867188 490.816406 419.320312 490.816406 419.320312 C 490.816406 419.320312 482.851562 398.519531 463.398438 392.769531 C 463.398438 392.769531 457.203125 383.914062 462.511719 376.839844 C 462.511719 376.839844 475.78125 343.652344 483.300781 339.671875 C 490.816406 335.691406 480.199219 312.703125 480.199219 312.703125 Z M 422.269531 316.667969 "/>
</g>
<mask id="mask6">
  <g filter="url(#alpha)">
<rect x="0" y="0" width="649" height="544" style="fill:rgb(0%,0%,0%);fill-opacity:0.101961;stroke:none;"/>
  </g>
</mask>
<clipPath id="clip7">
  <rect x="0" y="0" width="649" height="544"/>
</clipPath>
<g id="surface23" clip-path="url(#clip7)">
<path style=" stroke:none;fill-rule:nonzero;fill:rgb(0%,0%,0%);fill-opacity:1;" d="M 410.613281 185.167969 L 408.121094 189.664062 L 400.15625 189.664062 L 399.988281 187.570312 C 403.695312 187.242188 408.105469 186.566406 410.613281 185.167969 Z M 410.613281 185.167969 "/>
</g>
<mask id="mask7">
  <g filter="url(#alpha)">
<rect x="0" y="0" width="649" height="544" style="fill:rgb(0%,0%,0%);fill-opacity:0.101961;stroke:none;"/>
  </g>
</mask>
<clipPath id="clip8">
  <rect x="0" y="0" width="649" height="544"/>
</clipPath>
<g id="surface26" clip-path="url(#clip8)">
<path style=" stroke:none;fill-rule:nonzero;fill:rgb(0%,0%,0%);fill-opacity:1;" d="M 411.214844 191.210938 L 411.214844 195.421875 L 394.851562 199.847656 C 394.851562 199.847656 394.851562 198.785156 394.800781 197.3125 C 400.253906 196.359375 408.121094 192.71875 411.214844 191.210938 Z M 411.214844 191.210938 "/>
</g>
<mask id="mask8">
  <g filter="url(#alpha)">
<rect x="0" y="0" width="649" height="544" style="fill:rgb(0%,0%,0%);fill-opacity:0.101961;stroke:none;"/>
  </g>
</mask>
<clipPath id="clip9">
  <rect x="0" y="0" width="649" height="544"/>
</clipPath>
<g id="surface29" clip-path="url(#clip9)">
<path style=" stroke:none;fill-rule:nonzero;fill:rgb(0%,0%,0%);fill-opacity:1;" d="M 512.941406 196.746094 C 509.699219 201.109375 508.636719 201.753906 507.535156 204.902344 C 506.542969 205.070312 505.535156 205.15625 504.523438 205.152344 C 496.941406 205.152344 489.558594 203.589844 486.851562 196.976562 C 487.324219 194.125 487.613281 191.246094 487.722656 188.359375 C 487.722656 188.359375 519.523438 187.871094 512.941406 196.746094 Z M 512.941406 196.746094 "/>
</g>
<mask id="mask9">
  <g filter="url(#alpha)">
<rect x="0" y="0" width="649" height="544" style="fill:rgb(0%,0%,0%);fill-opacity:0.0509804;stroke:none;"/>
  </g>
</mask>
<clipPath id="clip10">
  <rect x="0" y="0" width="649" height="544"/>
</clipPath>
<g id="surface32" clip-path="url(#clip10)">
<path style=" stroke:none;fill-rule:nonzero;fill:rgb(0%,0%,0%);fill-opacity:1;" d="M 412.535156 191.433594 C 412.535156 191.433594 395.289062 200.285156 390.425781 198.070312 L 402.367188 230.816406 C 402.367188 230.816406 403.25 238.785156 418.730469 242.304688 C 434.207031 245.828125 441.726562 248.941406 441.726562 248.941406 L 470.46875 214.871094 L 455.875 218.851562 C 455.875 218.851562 448.355469 229.472656 443.042969 225.933594 C 437.726562 222.390625 421.382812 224.175781 421.382812 224.175781 C 421.382812 224.175781 412.097656 198.960938 412.535156 191.433594 Z M 412.535156 191.433594 "/>
</g>
<mask id="mask10">
  <g filter="url(#alpha)">
<rect x="0" y="0" width="649" height="544" style="fill:rgb(0%,0%,0%);fill-opacity:0.101961;stroke:none;"/>
  </g>
</mask>
<clipPath id="clip11">
  <rect x="0" y="0" width="649" height="544"/>
</clipPath>
<g id="surface35" clip-path="url(#clip11)">
<path style=" stroke:none;fill-rule:nonzero;fill:rgb(0%,0%,0%);fill-opacity:1;" d="M 479.761719 212.328125 C 479.761719 212.328125 503.140625 205.640625 505.597656 218.066406 C 505.597656 218.066406 494.792969 212.796875 479.316406 222.121094 C 478.152344 222.796875 477.019531 223.558594 475.9375 224.335938 C 462.316406 233.886719 452.800781 248.664062 448.976562 265.453125 L 439.097656 308.769531 L 438.214844 320.414062 C 438.214844 320.414062 424.03125 323.210938 421.410156 319.015625 C 418.789062 314.816406 420.527344 300.84375 424.503906 296.1875 C 428.480469 291.53125 434.65625 271.480469 434.65625 271.480469 L 438.523438 259.855469 C 441.761719 250.078125 446.914062 241.046875 453.671875 233.277344 L 454.605469 232.148438 C 460.429688 225.152344 467.816406 219.625 476.167969 216.011719 C 478.429688 215.03125 480.070312 213.796875 479.761719 212.328125 Z M 479.761719 212.328125 "/>
</g>
<mask id="mask11">
  <g filter="url(#alpha)">
<rect x="0" y="0" width="649" height="544" style="fill:rgb(0%,0%,0%);fill-opacity:0.101961;stroke:none;"/>
  </g>
</mask>
<clipPath id="clip12">
  <rect x="0" y="0" width="649" height="544"/>
</clipPath>
<g id="surface38" clip-path="url(#clip12)">
<path style=" stroke:none;fill-rule:nonzero;fill:rgb(0%,0%,0%);fill-opacity:1;" d="M 420.964844 300.644531 L 421.160156 308.269531 L 427.355469 304.289062 C 427.355469 304.289062 438.382812 264.128906 446.148438 253.179688 C 447.058594 251.890625 447.5 249.964844 448.355469 249.636719 L 479.976562 219.105469 L 479.976562 212.011719 C 479.976562 212.011719 463.835938 223.960938 462.503906 226.203125 C 461.9375 227.140625 453.460938 231.777344 448.324219 239.042969 C 443.746094 245.730469 439.683594 252.757812 436.167969 260.058594 L 425.550781 283.953125 Z M 420.964844 300.644531 "/>
</g>
<mask id="mask12">
  <g filter="url(#alpha)">
<rect x="0" y="0" width="649" height="544" style="fill:rgb(0%,0%,0%);fill-opacity:0.101961;stroke:none;"/>
  </g>
</mask>
<clipPath id="clip13">
  <rect x="0" y="0" width="649" height="544"/>
</clipPath>
<g id="surface41" clip-path="url(#clip13)">
<path style=" stroke:none;fill-rule:nonzero;fill:rgb(0%,0%,0%);fill-opacity:1;" d="M 497.601562 169.078125 C 496.203125 168.402344 494.625 167.355469 494.625 165.796875 C 494.625 164.652344 495.523438 163.707031 496.46875 163.09375 C 498.992188 161.367188 498.796875 158.253906 501.703125 159.226562 C 503.648438 159.902344 505.34375 161.113281 507.234375 161.894531 C 508.558594 162.445312 509.960938 162.769531 511.394531 162.855469 C 512.296875 162.855469 513.203125 162.925781 514.09375 163.070312 C 514.804688 163.257812 515.488281 163.542969 516.121094 163.917969 C 520.152344 166.171875 523.144531 169.914062 524.46875 174.34375 C 525.667969 178.453125 525.546875 183.316406 528.640625 186.269531 C 529.199219 186.722656 529.714844 187.226562 530.179688 187.777344 C 530.578125 188.394531 530.839844 189.082031 530.957031 189.804688 C 531.515625 192.257812 531.300781 194.824219 530.351562 197.152344 C 529.371094 199.484375 527.457031 201.296875 525.074219 202.144531 C 524.027344 202.488281 522.929688 202.605469 521.859375 202.875 C 516.78125 204.160156 513.183594 208.617188 508.550781 211.078125 C 508.179688 211.3125 507.757812 211.445312 507.320312 211.464844 C 506.84375 211.410156 506.394531 211.21875 506.023438 210.910156 C 504.234375 209.632812 502.761719 207.644531 502.808594 205.441406 C 502.953125 204.066406 503.355469 202.730469 503.992188 201.503906 C 504.960938 199.203125 505.703125 196.816406 506.207031 194.375 C 506.367188 193.8125 506.382812 193.21875 506.253906 192.648438 C 505.917969 191.574219 504.726562 191.074219 503.902344 190.3125 C 502.335938 188.859375 502.148438 186.386719 502.726562 184.324219 C 503.308594 182.261719 504.523438 180.445312 505.429688 178.507812 C 505.742188 177.921875 505.921875 177.28125 505.964844 176.621094 C 505.964844 174.03125 502.464844 172.628906 500.992188 170.917969 C 499.074219 168.578125 500.335938 170.429688 497.601562 169.078125 Z M 497.601562 169.078125 "/>
</g>
<mask id="mask13">
  <g filter="url(#alpha)">
<rect x="0" y="0" width="649" height="544" style="fill:rgb(0%,0%,0%);fill-opacity:0.101961;stroke:none;"/>
  </g>
</mask>
<clipPath id="clip14">
  <rect x="0" y="0" width="649" height="544"/>
</clipPath>
<g id="surface44" clip-path="url(#clip14)">
<path style=" stroke:none;fill-rule:nonzero;fill:rgb(0%,0%,0%);fill-opacity:1;" d="M 479.117188 346.585938 C 471.015625 345.625 460.804688 344.6875 456.320312 345.4375 C 449.101562 346.640625 438.96875 340.199219 437.144531 338.996094 C 440.902344 328.65625 443.933594 320.65625 443.933594 320.65625 C 443.933594 320.65625 473.5625 322.007812 479.726562 332.605469 C 482.597656 337.46875 481.328125 342.53125 479.117188 346.585938 Z M 479.117188 346.585938 "/>
</g>
<mask id="mask14">
  <g filter="url(#alpha)">
<rect x="0" y="0" width="649" height="544" style="fill:rgb(0%,0%,0%);fill-opacity:0.101961;stroke:none;"/>
  </g>
</mask>
<clipPath id="clip15">
  <rect x="0" y="0" width="649" height="544"/>
</clipPath>
<g id="surface47" clip-path="url(#clip15)">
<path style=" stroke:none;fill-rule:nonzero;fill:rgb(0%,0%,0%);fill-opacity:1;" d="M 437.085938 314.683594 C 437.085938 314.683594 444.164062 311.585938 456.101562 312.472656 C 468.042969 313.359375 489.304688 302.734375 489.304688 302.734375 "/>
</g>
<mask id="mask15">
  <g filter="url(#alpha)">
<rect x="0" y="0" width="649" height="544" style="fill:rgb(0%,0%,0%);fill-opacity:0.0509804;stroke:none;"/>
  </g>
</mask>
<clipPath id="clip16">
  <rect x="0" y="0" width="649" height="544"/>
</clipPath>
<g id="surface50" clip-path="url(#clip16)">
<path style=" stroke:none;fill-rule:nonzero;fill:rgb(0%,0%,0%);fill-opacity:1;" d="M 449.910156 413.394531 C 449.910156 413.394531 450.347656 414.746094 444.601562 416.488281 C 438.855469 418.230469 437.085938 420.027344 437.085938 420.027344 "/>
</g>
<mask id="mask16">
  <g filter="url(#alpha)">
<rect x="0" y="0" width="649" height="544" style="fill:rgb(0%,0%,0%);fill-opacity:0.101961;stroke:none;"/>
  </g>
</mask>
<clipPath id="clip17">
  <rect x="0" y="0" width="649" height="544"/>
</clipPath>
<g id="surface53" clip-path="url(#clip17)">
<path style=" stroke:none;fill-rule:nonzero;fill:rgb(0%,0%,0%);fill-opacity:1;" d="M 463.398438 179.484375 L 463.398438 179.621094 L 461.628906 183 L 450.570312 183.886719 C 450.570312 183.886719 450.34375 182.972656 450.058594 181.464844 C 454.015625 179.960938 459.203125 178.554688 463.398438 179.484375 Z M 463.398438 179.484375 "/>
</g>
<mask id="mask17">
  <g filter="url(#alpha)">
<rect x="0" y="0" width="649" height="544" style="fill:rgb(0%,0%,0%);fill-opacity:0.0509804;stroke:none;"/>
  </g>
</mask>
<clipPath id="clip18">
  <rect x="0" y="0" width="649" height="544"/>
</clipPath>
<g id="surface56" clip-path="url(#clip18)">
<path style=" stroke:none;fill-rule:nonzero;fill:rgb(0%,0%,0%);fill-opacity:1;" d="M 506.457031 252.707031 C 502.535156 256.164062 497.351562 257.824219 492.152344 257.289062 C 464.152344 254.441406 463.398438 244.542969 463.398438 244.542969 L 459.101562 234.988281 C 464.207031 228.804688 471.148438 221.835938 477.644531 220.121094 C 482.285156 227.601562 486.425781 233 486.425781 233 C 486.425781 233 507.210938 217.074219 513.40625 232.117188 C 516.992188 240.90625 511.589844 248.171875 506.457031 252.707031 Z M 506.457031 252.707031 "/>
</g>
<mask id="mask18">
  <g filter="url(#alpha)">
<rect x="0" y="0" width="649" height="544" style="fill:rgb(0%,0%,0%);fill-opacity:0.101961;stroke:none;"/>
  </g>
</mask>
<clipPath id="clip19">
  <rect x="0" y="0" width="649" height="544"/>
</clipPath>
<g id="surface59" clip-path="url(#clip19)">
<path style=" stroke:none;fill-rule:nonzero;fill:rgb(0%,0%,0%);fill-opacity:1;" d="M 463.398438 185.25 L 463.398438 188.359375 L 447.480469 196.765625 C 447.480469 196.765625 447.296875 195.328125 446.960938 193.460938 C 453.820312 191.238281 460.609375 187.070312 463.398438 185.25 Z M 463.398438 185.25 "/>
</g>
<mask id="mask19">
  <g filter="url(#alpha)">
<rect x="0" y="0" width="649" height="544" style="fill:rgb(0%,0%,0%);fill-opacity:0.0509804;stroke:none;"/>
  </g>
</mask>
<clipPath id="clip20">
  <rect x="0" y="0" width="649" height="544"/>
</clipPath>
<g id="surface62" clip-path="url(#clip20)">
<path style=" stroke:none;fill-rule:nonzero;fill:rgb(0%,0%,0%);fill-opacity:1;" d="M 524.3125 473.28125 L 626.058594 473.28125 C 627.054688 473.28125 627.863281 474.085938 627.863281 475.085938 L 627.863281 480.9375 C 627.863281 481.933594 627.054688 482.742188 626.058594 482.742188 L 524.3125 482.742188 C 523.316406 482.742188 522.507812 481.933594 522.507812 480.9375 L 522.507812 475.085938 C 522.507812 474.085938 523.316406 473.28125 524.3125 473.28125 Z M 524.3125 473.28125 "/>
</g>
</defs>
<g id="surface1">
<use xlink:href="#surface5" mask="url(#mask0)"/>
<path style="fill:none;stroke-width:2;stroke-linecap:butt;stroke-linejoin:miter;stroke:rgb(32.54902%,32.941176%,38.039216%);stroke-opacity:1;stroke-miterlimit:10;" d="M 309.079863 218.120938 C 309.079863 218.120938 267.94885 195.542741 255.7501 160.947117 C 250.729468 146.40366 241.127797 133.883339 228.379554 125.258999 C 222.300424 121.212727 215.856893 117.732934 209.141508 114.860081 " transform="matrix(0.675338,0,0,0.675776,-80.682653,-31.94395)"/>
<path style=" stroke:none;fill-rule:nonzero;fill:rgb(14.117647%,74.117647%,78.823529%);fill-opacity:1;" d="M 55.289062 30.976562 C 57.917969 33.621094 60.746094 46.046875 60.746094 46.046875 C 60.746094 46.046875 48.347656 43.140625 45.71875 40.492188 C 43.3125 37.816406 43.425781 33.714844 45.980469 31.175781 C 48.53125 28.636719 52.628906 28.550781 55.289062 30.976562 Z M 55.289062 30.976562 "/>
<path style=" stroke:none;fill-rule:nonzero;fill:rgb(14.117647%,74.117647%,78.823529%);fill-opacity:1;" d="M 77.746094 37.753906 C 78.515625 41.40625 74.144531 53.371094 74.144531 53.371094 C 74.144531 53.371094 65.320312 44.1875 64.546875 40.53125 C 63.964844 36.96875 66.289062 33.574219 69.820312 32.828125 C 73.355469 32.082031 76.847656 34.25 77.75 37.75 Z M 77.746094 37.753906 "/>
<path style=" stroke:none;fill-rule:nonzero;fill:rgb(14.117647%,74.117647%,78.823529%);fill-opacity:1;" d="M 102.257812 63.125 C 101.085938 66.660156 91.273438 74.789062 91.273438 74.789062 C 91.273438 74.789062 88.285156 62.402344 89.460938 58.859375 C 90.640625 55.316406 94.464844 53.394531 98.007812 54.574219 C 101.550781 55.75 103.46875 59.578125 102.292969 63.125 Z M 102.257812 63.125 "/>
<path style=" stroke:none;fill-rule:nonzero;fill:rgb(14.117647%,74.117647%,78.823529%);fill-opacity:1;" d="M 116.515625 86.5 C 115.957031 90.183594 107.65625 99.851562 107.65625 99.851562 C 107.65625 99.851562 102.617188 88.148438 103.179688 84.464844 C 103.433594 81.984375 105.03125 79.847656 107.335938 78.902344 C 109.640625 77.957031 112.277344 78.359375 114.199219 79.945312 C 116.117188 81.53125 117.007812 84.050781 116.515625 86.492188 Z M 116.515625 86.5 "/>
<path style=" stroke:none;fill-rule:nonzero;fill:rgb(14.117647%,74.117647%,78.823529%);fill-opacity:1;" d="M 64.609375 63.882812 C 68.335938 63.839844 79.0625 56.960938 79.0625 56.960938 C 79.0625 56.960938 68.183594 50.339844 64.453125 50.378906 C 60.722656 50.421875 57.734375 53.480469 57.777344 57.214844 C 57.820312 60.945312 60.878906 63.9375 64.609375 63.894531 Z M 64.609375 63.882812 "/>
<path style=" stroke:none;fill-rule:nonzero;fill:rgb(14.117647%,74.117647%,78.823529%);fill-opacity:1;" d="M 81.59375 91.007812 C 85.132812 89.851562 93.3125 80.078125 93.3125 80.078125 C 93.3125 80.078125 80.945312 77.019531 77.40625 78.171875 C 74 79.429688 72.195312 83.15625 73.320312 86.613281 C 74.449219 90.066406 78.101562 92.011719 81.59375 91.011719 Z M 81.59375 91.007812 "/>
<path style=" stroke:none;fill-rule:nonzero;fill:rgb(14.117647%,74.117647%,78.823529%);fill-opacity:1;" d="M 101.71875 115.105469 C 105.40625 114.5625 115.117188 106.320312 115.117188 106.320312 C 115.117188 106.320312 103.449219 101.210938 99.769531 101.75 C 97.300781 102.007812 95.167969 103.59375 94.21875 105.890625 C 93.269531 108.183594 93.65625 110.816406 95.222656 112.742188 C 96.792969 114.667969 99.289062 115.578125 101.726562 115.113281 Z M 101.71875 115.105469 "/>
<path style="fill:none;stroke-width:2;stroke-linecap:butt;stroke-linejoin:miter;stroke:rgb(32.54902%,32.941176%,38.039216%);stroke-opacity:1;stroke-miterlimit:10;" d="M 272.078725 356.121929 C 272.078725 356.121929 230.947712 333.537952 218.748963 298.948108 C 213.72833 284.404651 204.126659 271.878549 191.378417 263.25999 C 185.299287 259.213718 178.855756 255.733925 172.14037 252.861072 " transform="matrix(0.675338,0,0,0.675776,-80.682653,-31.94395)"/>
<path style=" stroke:none;fill-rule:nonzero;fill:rgb(14.117647%,74.117647%,78.823529%);fill-opacity:1;" d="M 30.300781 124.234375 C 32.929688 126.878906 35.757812 139.304688 35.757812 139.304688 C 35.757812 139.304688 23.359375 136.398438 20.734375 133.75 C 18.324219 131.070312 18.4375 126.972656 20.992188 124.433594 C 23.546875 121.894531 27.640625 121.804688 30.300781 124.234375 Z M 30.300781 124.234375 "/>
<path style=" stroke:none;fill-rule:nonzero;fill:rgb(14.117647%,74.117647%,78.823529%);fill-opacity:1;" d="M 52.757812 131.011719 C 53.527344 134.660156 49.15625 146.628906 49.15625 146.628906 C 49.15625 146.628906 40.332031 137.445312 39.5625 133.789062 C 38.976562 130.226562 41.300781 126.832031 44.832031 126.085938 C 48.367188 125.339844 51.859375 127.507812 52.765625 131.007812 Z M 52.757812 131.011719 "/>
<path style=" stroke:none;fill-rule:nonzero;fill:rgb(14.117647%,74.117647%,78.823529%);fill-opacity:1;" d="M 77.273438 156.382812 C 76.097656 159.914062 66.285156 168.046875 66.285156 168.046875 C 66.285156 168.046875 63.300781 155.660156 64.472656 152.117188 C 65.652344 148.570312 69.476562 146.652344 73.019531 147.828125 C 76.5625 149.007812 78.484375 152.835938 77.304688 156.382812 Z M 77.273438 156.382812 "/>
<path style=" stroke:none;fill-rule:nonzero;fill:rgb(14.117647%,74.117647%,78.823529%);fill-opacity:1;" d="M 91.527344 179.757812 C 90.96875 183.441406 82.667969 193.109375 82.667969 193.109375 C 82.667969 193.109375 77.628906 181.40625 78.191406 177.722656 C 78.445312 175.242188 80.042969 173.105469 82.347656 172.160156 C 84.652344 171.214844 87.289062 171.617188 89.210938 173.203125 C 91.128906 174.789062 92.019531 177.304688 91.527344 179.75 Z M 91.527344 179.757812 "/>
<path style=" stroke:none;fill-rule:nonzero;fill:rgb(14.117647%,74.117647%,78.823529%);fill-opacity:1;" d="M 39.621094 157.136719 C 43.351562 157.097656 54.074219 150.21875 54.074219 150.21875 C 54.074219 150.21875 43.195312 143.597656 39.464844 143.636719 C 35.738281 143.679688 32.75 146.738281 32.792969 150.472656 C 32.832031 154.203125 35.890625 157.195312 39.621094 157.152344 Z M 39.621094 157.136719 "/>
<path style=" stroke:none;fill-rule:nonzero;fill:rgb(14.117647%,74.117647%,78.823529%);fill-opacity:1;" d="M 56.605469 184.265625 C 60.144531 183.109375 68.324219 173.335938 68.324219 173.335938 C 68.324219 173.335938 55.957031 170.273438 52.417969 171.429688 C 50.042969 172.109375 48.226562 174.035156 47.683594 176.449219 C 47.140625 178.863281 47.964844 181.382812 49.824219 183.011719 C 51.683594 184.644531 54.285156 185.125 56.605469 184.269531 Z M 56.605469 184.265625 "/>
<path style=" stroke:none;fill-rule:nonzero;fill:rgb(14.117647%,74.117647%,78.823529%);fill-opacity:1;" d="M 76.730469 208.363281 C 80.417969 207.820312 90.128906 199.578125 90.128906 199.578125 C 90.128906 199.578125 78.460938 194.46875 74.78125 195.007812 C 72.3125 195.261719 70.179688 196.851562 69.230469 199.148438 C 68.285156 201.441406 68.667969 204.074219 70.238281 206 C 71.804688 207.925781 74.300781 208.835938 76.738281 208.367188 Z M 76.730469 208.363281 "/>
<path style=" stroke:none;fill-rule:nonzero;fill:url(#linear0);" d="M 425.066406 0 L 111.324219 0 C 95.449219 -0.0234375 82.5625 12.835938 82.539062 28.71875 L 82.539062 463.730469 C 82.558594 479.617188 95.445312 492.480469 111.324219 492.457031 L 425.066406 492.457031 C 440.9375 492.480469 453.824219 479.621094 453.847656 463.738281 L 453.847656 28.714844 C 453.820312 12.832031 440.9375 -0.0234375 425.066406 0 Z M 425.066406 0 "/>
<path style=" stroke:none;fill-rule:nonzero;fill:rgb(32.54902%,32.941176%,38.039216%);fill-opacity:1;" d="M 100.46875 5.898438 L 435.925781 5.898438 C 443.382812 5.898438 449.429688 11.949219 449.429688 19.414062 L 449.429688 474.511719 C 449.429688 481.972656 443.382812 488.027344 435.925781 488.027344 L 100.46875 488.027344 C 93.011719 488.027344 86.964844 481.972656 86.964844 474.511719 L 86.964844 19.414062 C 86.964844 11.949219 93.011719 5.898438 100.46875 5.898438 Z M 100.46875 5.898438 "/>
<path style=" stroke:none;fill-rule:nonzero;fill:rgb(94.509804%,94.509804%,95.686275%);fill-opacity:1;" d="M 105.378906 51.507812 L 431.015625 51.507812 L 431.015625 442.425781 L 105.378906 442.425781 Z M 105.378906 51.507812 "/>
<path style=" stroke:none;fill-rule:nonzero;fill:rgb(100%,100%,100%);fill-opacity:1;" d="M 271.148438 28.011719 C 271.148438 30.457031 269.167969 32.4375 266.726562 32.4375 C 264.28125 32.4375 262.300781 30.457031 262.300781 28.011719 C 262.300781 25.566406 264.28125 23.585938 266.726562 23.585938 C 269.167969 23.585938 271.148438 25.566406 271.148438 28.011719 Z M 271.148438 28.011719 "/>
<path style=" stroke:none;fill-rule:nonzero;fill:rgb(100%,100%,100%);fill-opacity:1;" d="M 279.988281 464.433594 C 279.988281 471.765625 274.050781 477.707031 266.726562 477.707031 C 259.398438 477.707031 253.460938 471.765625 253.460938 464.433594 C 253.460938 457.105469 259.398438 451.160156 266.726562 451.160156 C 274.050781 451.160156 279.988281 457.105469 279.988281 464.433594 Z M 279.988281 464.433594 "/>
<path style=" stroke:none;fill-rule:nonzero;fill:rgb(14.117647%,74.117647%,78.823529%);fill-opacity:1;" d="M 152.613281 102.285156 L 200.089844 102.285156 C 204.507812 102.285156 208.09375 105.871094 208.09375 110.292969 L 208.09375 157.800781 C 208.09375 162.222656 204.507812 165.808594 200.089844 165.808594 L 152.613281 165.808594 C 148.191406 165.808594 144.609375 162.222656 144.609375 157.800781 L 144.609375 110.292969 C 144.609375 105.871094 148.191406 102.285156 152.613281 102.285156 Z M 152.613281 102.285156 "/>
<use xlink:href="#surface8" mask="url(#mask1)"/>
<path style=" stroke:none;fill-rule:nonzero;fill:rgb(14.117647%,74.117647%,78.823529%);fill-opacity:1;" d="M 244.457031 102.285156 L 291.933594 102.285156 C 296.355469 102.285156 299.9375 105.871094 299.9375 110.292969 L 299.9375 157.800781 C 299.9375 162.222656 296.355469 165.808594 291.933594 165.808594 L 244.457031 165.808594 C 240.039062 165.808594 236.457031 162.222656 236.457031 157.800781 L 236.457031 110.292969 C 236.457031 105.871094 240.039062 102.285156 244.457031 102.285156 Z M 244.457031 102.285156 "/>
<path style=" stroke:none;fill-rule:nonzero;fill:rgb(14.117647%,74.117647%,78.823529%);fill-opacity:1;" d="M 152.613281 214.464844 L 200.089844 214.464844 C 204.507812 214.464844 208.09375 218.050781 208.09375 222.472656 L 208.09375 269.980469 C 208.09375 274.402344 204.507812 277.988281 200.089844 277.988281 L 152.613281 277.988281 C 148.191406 277.988281 144.609375 274.402344 144.609375 269.980469 L 144.609375 222.472656 C 144.609375 218.050781 148.191406 214.464844 152.613281 214.464844 Z M 152.613281 214.464844 "/>
<use xlink:href="#surface11" mask="url(#mask2)"/>
<use xlink:href="#surface14" mask="url(#mask3)"/>
<path style=" stroke:none;fill-rule:nonzero;fill:rgb(14.117647%,74.117647%,78.823529%);fill-opacity:1;" d="M 152.613281 326.644531 L 200.089844 326.644531 C 204.507812 326.644531 208.09375 330.230469 208.09375 334.652344 L 208.09375 382.160156 C 208.09375 386.582031 204.507812 390.167969 200.089844 390.167969 L 152.613281 390.167969 C 148.191406 390.167969 144.609375 386.582031 144.609375 382.160156 L 144.609375 334.652344 C 144.609375 330.230469 148.191406 326.644531 152.613281 326.644531 Z M 152.613281 326.644531 "/>
<path style=" stroke:none;fill-rule:nonzero;fill:rgb(14.117647%,74.117647%,78.823529%);fill-opacity:1;" d="M 383.78125 390.167969 L 336.304688 390.167969 C 331.886719 390.167969 328.300781 386.582031 328.300781 382.160156 L 328.300781 334.652344 C 328.300781 330.230469 331.886719 326.644531 336.304688 326.644531 L 383.78125 326.644531 C 388.199219 326.644531 391.785156 330.230469 391.785156 334.652344 L 391.785156 382.160156 C 391.785156 386.582031 388.199219 390.167969 383.78125 390.167969 Z M 383.78125 390.167969 "/>
<path style=" stroke:none;fill-rule:nonzero;fill:rgb(14.117647%,74.117647%,78.823529%);fill-opacity:1;" d="M 244.457031 326.644531 L 291.933594 326.644531 C 296.355469 326.644531 299.9375 330.230469 299.9375 334.652344 L 299.9375 382.160156 C 299.9375 386.582031 296.355469 390.167969 291.933594 390.167969 L 244.457031 390.167969 C 240.039062 390.167969 236.457031 386.582031 236.457031 382.160156 L 236.457031 334.652344 C 236.457031 330.230469 240.039062 326.644531 244.457031 326.644531 Z M 244.457031 326.644531 "/>
<path style=" stroke:none;fill-rule:nonzero;fill:url(#linear1);" d="M 533.53125 187.796875 C 533.40625 187.074219 533.132812 186.382812 532.726562 185.769531 C 532.246094 185.210938 531.714844 184.699219 531.140625 184.238281 C 527.953125 181.238281 529.667969 175.832031 528.4375 171.660156 C 527.089844 167.207031 522.359375 163.792969 518.253906 161.523438 C 517.589844 161.140625 516.878906 160.851562 516.132812 160.664062 C 515.203125 160.515625 514.265625 160.441406 513.324219 160.441406 C 511.855469 160.355469 510.40625 160.027344 509.042969 159.46875 C 507.089844 158.671875 505.347656 157.441406 503.351562 156.765625 C 502.960938 156.625 502.546875 156.566406 502.132812 156.597656 C 499.953125 156.394531 499.878906 159.113281 497.535156 160.6875 C 496.5625 161.363281 495.636719 162.292969 495.636719 163.457031 C 495.636719 165.042969 497.257812 166.09375 498.703125 166.789062 C 500.148438 167.484375 500.480469 167.347656 500.761719 167.34375 L 500.886719 167.34375 C 501.082031 167.375 501.296875 167.546875 501.855469 168.160156 C 492.898438 169.558594 486.273438 177.257812 486.222656 186.332031 C 486.222656 188.894531 486.761719 191.425781 487.808594 193.765625 C 487.75 194.199219 487.683594 194.644531 487.609375 195.117188 C 486.898438 199.476562 485.582031 204.734375 483.324219 209.085938 C 481.476562 209.464844 480.308594 209.761719 480.308594 209.761719 C 480.324219 209.851562 480.335938 209.941406 480.339844 210.03125 L 479.664062 210.53125 L 476.828125 212.558594 C 471.246094 203.292969 465.539062 191.792969 465.308594 183.15625 C 465.308594 183.15625 464.632812 183.621094 463.484375 184.351562 L 463.484375 178.214844 L 463.121094 178.148438 L 463.484375 177.472656 L 466.117188 172.484375 C 467.109375 170.609375 467.644531 168.523438 467.679688 166.402344 C 467.800781 158.5625 467.542969 139.238281 462.128906 136.027344 C 455.300781 131.972656 453.933594 149.503906 450.296875 158.484375 C 447.59375 165.179688 448.945312 174.882812 449.769531 179.378906 C 449.828125 179.683594 449.882812 179.960938 449.9375 180.214844 C 447.714844 181.054688 445.558594 182.042969 443.472656 183.183594 C 444.914062 183.75 445.988281 188.257812 446.582031 191.5 C 446.640625 191.847656 446.703125 192.175781 446.757812 192.480469 C 445.382812 192.914062 443.980469 193.257812 442.5625 193.507812 L 454.300781 219.132812 C 451.792969 222.039062 446.566406 227.128906 442.5625 224.492188 C 437.097656 220.898438 420.277344 222.695312 420.277344 222.695312 C 420.277344 222.695312 410.660156 197.144531 411.117188 189.496094 C 411.117188 189.496094 410.613281 189.75 409.769531 190.171875 L 409.769531 183.203125 C 409.457031 183.414062 409.128906 183.601562 408.789062 183.765625 L 409.148438 183.128906 L 409.667969 182.203125 C 410.660156 180.449219 411.25 178.496094 411.394531 176.484375 C 411.964844 168.625 412.792969 148.449219 406.582031 145.925781 C 398.839844 142.785156 396.566406 165.234375 396.566406 165.234375 L 398.214844 185.5625 L 398.246094 186.015625 C 394.574219 186.339844 391.554688 186.339844 391.554688 186.339844 C 392.480469 187.25 392.777344 192.285156 392.90625 195.441406 C 392.90625 195.765625 392.90625 196.0625 392.90625 196.339844 C 391.027344 196.664062 389.421875 196.691406 388.375 196.21875 L 400.664062 229.445312 C 400.664062 229.445312 401.578125 237.554688 417.507812 241.125 C 426.875 243.238281 433.40625 245.179688 437.199219 246.449219 C 430.703125 261.855469 408.160156 317.40625 414.773438 330.921875 C 414.773438 330.921875 418.3125 329.570312 421.929688 328.378906 C 422.769531 340.03125 424.21875 357.675781 425.984375 368.980469 C 424.058594 374.933594 422.605469 379.929688 422.132812 382.785156 C 422.09375 383.023438 422.058594 383.246094 422.03125 383.460938 C 420.683594 394.242188 409.742188 414.898438 426.132812 432.410156 C 426.132812 432.410156 437.511719 439.167969 438.421875 447.230469 C 439.1875 454.027344 451.214844 470.976562 455.023438 476.207031 C 451.976562 481.445312 443.386719 495.257812 435.6875 498.871094 C 426.132812 503.367188 433.863281 509.648438 442.96875 508.332031 C 452.070312 507.015625 482.136719 485.429688 482.136719 485.429688 C 482.136719 485.429688 481.929688 471.320312 479.078125 470.292969 L 476.34375 464.644531 C 477.859375 464.40625 479.347656 464 480.773438 463.425781 C 493.0625 458.488281 509.90625 449.507812 509.90625 449.507812 C 509.90625 449.507812 510.238281 438.957031 505.464844 435.09375 C 503.019531 427.542969 491.699219 420.765625 491.699219 420.765625 C 491.699219 420.765625 483.496094 399.648438 463.464844 393.796875 C 463.464844 393.796875 460.230469 389.234375 460.351562 384.011719 C 461.667969 381.484375 462.558594 379.875 462.558594 379.875 L 472.917969 355.277344 C 475.601562 352.882812 477.882812 350.074219 479.671875 346.957031 C 479.824219 346.679688 479.972656 346.394531 480.117188 346.113281 C 486.363281 346.847656 491.261719 347.585938 491.261719 347.585938 L 490.808594 326.027344 C 486.683594 281.546875 499.433594 268.527344 499.433594 268.527344 C 499.433594 268.527344 517.667969 246.523438 519.464844 230.804688 C 521.144531 216.296875 508.867188 215.566406 506.96875 215.539062 C 506.609375 213.386719 506.6875 211.183594 507.207031 209.066406 L 507.421875 209.21875 C 507.808594 209.535156 508.277344 209.730469 508.773438 209.78125 C 508.871094 209.789062 508.972656 209.789062 509.070312 209.78125 L 509.230469 209.78125 C 509.679688 209.761719 510.113281 209.625 510.496094 209.390625 C 515.257812 206.890625 518.964844 202.367188 524.191406 201.0625 C 525.285156 200.792969 526.425781 200.671875 527.5 200.320312 C 529.929688 199.460938 531.890625 197.625 532.902344 195.253906 C 533.882812 192.894531 534.101562 190.289062 533.53125 187.796875 Z M 466.671875 425.671875 C 467.582031 428.8125 482.152344 439.59375 482.152344 439.59375 L 482.710938 443.464844 C 478.976562 447.003906 475.046875 450.332031 470.941406 453.433594 L 465.761719 442.734375 C 465.761719 442.734375 458.019531 418.035156 451.195312 415.34375 C 449.929688 414.84375 449.523438 413.320312 449.699219 411.175781 C 454.136719 414.425781 465.914062 423.152344 466.652344 425.691406 Z M 466.671875 425.671875 "/>
<path style=" stroke:none;fill-rule:nonzero;fill:rgb(34.117647%,34.901961%,53.333333%);fill-opacity:1;" d="M 439.515625 243.65625 C 439.515625 243.65625 408.558594 315.34375 416.074219 330.832031 C 416.074219 330.832031 428.460938 325.96875 430.257812 326.851562 C 432.054688 327.738281 449.714844 234.367188 449.714844 234.367188 Z M 439.515625 243.65625 "/>
<use xlink:href="#surface17" mask="url(#mask4)"/>
<path style=" stroke:none;fill-rule:nonzero;fill:rgb(34.117647%,34.901961%,53.333333%);fill-opacity:1;" d="M 456.320312 471.996094 C 456.320312 471.996094 445.703125 491.910156 436.417969 496.324219 C 427.132812 500.738281 434.648438 506.945312 443.496094 505.617188 C 452.339844 504.285156 481.53125 483.046875 481.53125 483.046875 C 481.53125 483.046875 481.328125 469.144531 478.550781 468.128906 C 475.777344 467.117188 456.320312 471.996094 456.320312 471.996094 Z M 456.320312 471.996094 "/>
<path style=" stroke:none;fill-rule:nonzero;fill:rgb(34.117647%,34.901961%,53.333333%);fill-opacity:1;" d="M 484.183594 439.695312 C 484.183594 439.695312 469.152344 454.738281 462.511719 456.066406 C 455.875 457.398438 468.257812 466.246094 480.199219 461.378906 C 492.140625 456.515625 508.503906 447.660156 508.503906 447.660156 C 508.503906 447.660156 508.941406 433.46875 501.425781 432.171875 C 493.910156 430.875 484.183594 439.695312 484.183594 439.695312 Z M 484.183594 439.695312 "/>
<path style=" stroke:none;fill-rule:nonzero;fill:rgb(40.392157%,39.215686%,49.411765%);fill-opacity:1;" d="M 422.269531 316.667969 C 422.269531 316.667969 425.363281 370.65625 429.347656 378.164062 C 433.332031 385.671875 448.363281 408.695312 448.363281 408.695312 C 448.363281 408.695312 465.613281 421.089844 466.496094 424.183594 C 467.382812 427.28125 481.53125 437.902344 481.53125 437.902344 L 482.414062 444.101562 C 482.414062 444.101562 505.855469 442.75 504.523438 434.808594 C 503.195312 426.867188 490.816406 419.320312 490.816406 419.320312 C 490.816406 419.320312 482.851562 398.519531 463.398438 392.769531 C 463.398438 392.769531 457.203125 383.914062 462.511719 376.839844 C 462.511719 376.839844 475.78125 343.652344 483.300781 339.671875 C 490.816406 335.691406 480.199219 312.703125 480.199219 312.703125 Z M 422.269531 316.667969 "/>
<use xlink:href="#surface20" mask="url(#mask5)"/>
<path style=" stroke:none;fill-rule:nonzero;fill:rgb(40.392157%,39.215686%,49.411765%);fill-opacity:1;" d="M 465.605469 441.019531 L 479.789062 470.664062 C 477.578125 478.1875 456.347656 475.53125 456.347656 475.53125 C 456.347656 475.53125 439.984375 453.40625 439.097656 445.4375 C 438.214844 437.46875 427.15625 430.835938 427.15625 430.835938 C 411.242188 413.574219 421.851562 393.222656 423.179688 382.597656 C 423.179688 382.394531 423.242188 382.171875 423.273438 381.921875 C 424.449219 374.800781 431.609375 354.308594 437.171875 338.960938 C 440.929688 328.625 443.960938 320.621094 443.960938 320.621094 C 443.960938 320.621094 473.585938 321.972656 479.753906 332.570312 C 482.589844 337.433594 481.320312 342.496094 479.113281 346.550781 C 477.382812 349.617188 475.175781 352.382812 472.574219 354.75 L 462.503906 379.035156 C 462.503906 379.035156 444.824219 411.367188 451.484375 414.027344 C 458.144531 416.691406 465.605469 441.019531 465.605469 441.019531 Z M 465.605469 441.019531 "/>
<path style=" stroke:none;fill-rule:nonzero;fill:rgb(96.862745%,76.862745%,65.490196%);fill-opacity:1;" d="M 412.792969 178.628906 C 412.652344 180.605469 412.082031 182.53125 411.117188 184.265625 L 410.613281 185.175781 L 408.121094 189.671875 L 400.15625 189.671875 L 399.988281 187.574219 L 398.390625 167.546875 C 398.390625 167.546875 400.597656 145.421875 408.121094 148.515625 C 414.152344 151.003906 413.347656 170.882812 412.792969 178.628906 Z M 412.792969 178.628906 "/>
<use xlink:href="#surface23" mask="url(#mask6)"/>
<path style=" stroke:none;fill-rule:nonzero;fill:rgb(90.196078%,90.196078%,94.117647%);fill-opacity:1;" d="M 411.214844 185.242188 L 411.214844 195.421875 L 394.851562 199.847656 C 394.851562 199.847656 394.851562 198.785156 394.800781 197.3125 C 394.707031 194.203125 394.417969 189.246094 393.519531 188.34375 C 393.527344 188.359375 406.789062 188.359375 411.214844 185.242188 Z M 411.214844 185.242188 "/>
<use xlink:href="#surface26" mask="url(#mask7)"/>
<path style=" stroke:none;fill-rule:nonzero;fill:rgb(96.862745%,76.862745%,65.490196%);fill-opacity:1;" d="M 506.652344 208.003906 C 503.425781 217.328125 507.617188 221.519531 507.617188 221.519531 C 507.617188 221.519531 467.8125 224.175781 477.546875 217.09375 C 483.226562 212.957031 485.742188 203.835938 486.851562 196.96875 C 487.324219 194.121094 487.613281 191.246094 487.722656 188.359375 C 487.722656 188.359375 519.53125 187.894531 512.933594 196.765625 C 510.28125 200.171875 508.164062 203.960938 506.652344 208.003906 Z M 506.652344 208.003906 "/>
<use xlink:href="#surface29" mask="url(#mask8)"/>
<path style=" stroke:none;fill-rule:nonzero;fill:rgb(96.862745%,76.862745%,65.490196%);fill-opacity:1;" d="M 521.773438 188.339844 C 521.773438 198.359375 513.65625 206.484375 503.640625 206.484375 C 493.625 206.484375 485.507812 198.359375 485.507812 188.339844 C 485.507812 178.316406 493.625 170.195312 503.640625 170.195312 C 513.65625 170.195312 521.773438 178.316406 521.773438 188.339844 Z M 521.773438 188.339844 "/>
<path style=" stroke:none;fill-rule:nonzero;fill:rgb(34.117647%,34.901961%,53.333333%);fill-opacity:1;" d="M 412.535156 191.433594 C 412.535156 191.433594 395.289062 200.285156 390.425781 198.070312 L 402.367188 230.816406 C 402.367188 230.816406 403.25 238.785156 418.730469 242.304688 C 434.207031 245.828125 441.726562 248.941406 441.726562 248.941406 L 470.46875 214.871094 L 455.875 218.851562 C 455.875 218.851562 448.355469 229.472656 443.042969 225.933594 C 437.726562 222.390625 421.382812 224.175781 421.382812 224.175781 C 421.382812 224.175781 412.097656 198.960938 412.535156 191.433594 Z M 412.535156 191.433594 "/>
<use xlink:href="#surface32" mask="url(#mask9)"/>
<use xlink:href="#surface35" mask="url(#mask10)"/>
<path style=" stroke:none;fill-rule:nonzero;fill:rgb(90.196078%,90.196078%,94.117647%);fill-opacity:1;" d="M 479.761719 211.445312 C 479.761719 211.445312 503.140625 204.753906 505.597656 217.179688 C 505.597656 217.179688 494.792969 211.910156 479.316406 221.234375 C 478.152344 221.910156 477.019531 222.675781 475.9375 223.453125 C 462.316406 233 452.800781 247.78125 448.976562 264.566406 L 439.097656 307.882812 L 438.214844 319.527344 C 438.214844 319.527344 424.03125 322.324219 421.410156 318.128906 C 418.789062 313.933594 420.527344 299.957031 424.503906 295.300781 C 428.480469 290.644531 434.675781 270.609375 434.675781 270.609375 L 438.542969 258.984375 C 441.785156 249.207031 446.933594 240.171875 453.691406 232.40625 L 454.625 231.277344 C 460.449219 224.28125 467.835938 218.753906 476.1875 215.140625 C 478.429688 214.148438 480.070312 212.910156 479.761719 211.445312 Z M 479.761719 211.445312 "/>
<use xlink:href="#surface38" mask="url(#mask11)"/>
<path style=" stroke:none;fill-rule:nonzero;fill:rgb(47.058824%,48.627451%,61.176471%);fill-opacity:1;" d="M 479.984375 211.570312 L 479.984375 218.429688 L 447.917969 249.179688 C 447.066406 249.503906 446.621094 251.429688 445.710938 252.71875 C 437.9375 263.675781 426.914062 303.828125 426.914062 303.828125 L 420.722656 307.808594 L 420.527344 300.1875 L 425.144531 283.480469 L 435.761719 259.585938 C 439.277344 252.28125 443.339844 245.257812 447.917969 238.570312 C 453.023438 231.3125 461.503906 226.675781 462.101562 225.730469 C 463.25 223.824219 475.714844 214.6875 479.144531 212.214844 Z M 479.984375 211.570312 "/>
<use xlink:href="#surface41" mask="url(#mask12)"/>
<path style=" stroke:none;fill-rule:nonzero;fill:rgb(72.54902%,41.960784%,41.960784%);fill-opacity:1;" d="M 498.046875 169.078125 C 496.652344 168.402344 495.070312 167.355469 495.070312 165.796875 C 495.070312 164.652344 495.96875 163.707031 496.914062 163.09375 C 499.441406 161.367188 499.242188 158.253906 502.148438 159.226562 C 504.09375 159.902344 505.789062 161.113281 507.679688 161.894531 C 509.003906 162.445312 510.410156 162.769531 511.839844 162.855469 C 512.75 162.910156 515.703125 161.503906 516.566406 161.71875 C 517.277344 161.90625 517.960938 162.191406 518.59375 162.566406 C 522.625 164.820312 525.617188 168.5625 526.9375 172.992188 C 528.140625 177.101562 527.304688 182.238281 530.398438 185.15625 C 530.917969 185.65625 530.207031 187.183594 530.625 187.746094 C 531.023438 188.359375 531.289062 189.050781 531.402344 189.773438 C 531.960938 192.222656 531.75 194.789062 530.796875 197.117188 C 529.816406 199.449219 527.902344 201.261719 525.519531 202.109375 C 524.472656 202.457031 523.375 202.570312 522.304688 202.839844 C 517.226562 204.125 513.628906 208.585938 508.996094 211.046875 C 508.625 211.277344 508.203125 211.410156 507.765625 211.429688 C 507.289062 211.375 506.839844 211.183594 506.46875 210.875 C 504.679688 209.597656 503.207031 207.613281 503.253906 205.410156 C 503.398438 204.035156 503.800781 202.695312 504.4375 201.46875 C 505.40625 199.171875 506.148438 196.78125 506.652344 194.339844 C 506.8125 193.777344 506.828125 193.1875 506.699219 192.617188 C 506.363281 191.542969 505.171875 191.042969 504.347656 190.277344 C 502.78125 188.824219 502.59375 186.351562 503.175781 184.289062 C 503.753906 182.230469 504.96875 180.410156 505.875 178.472656 C 506.1875 177.890625 506.371094 177.246094 506.410156 176.585938 C 506.410156 174 502.910156 172.59375 501.4375 170.882812 C 499.519531 168.578125 500.785156 170.429688 498.046875 169.078125 Z M 498.046875 169.078125 "/>
<use xlink:href="#surface44" mask="url(#mask13)"/>
<path style=" stroke:none;fill-rule:nonzero;fill:rgb(34.117647%,34.901961%,53.333333%);fill-opacity:1;" d="M 517.796875 232.148438 C 516.027344 247.636719 498.339844 269.316406 498.339844 269.316406 C 498.339844 269.316406 485.953125 282.15625 489.9375 325.960938 L 490.375 347.199219 C 490.375 347.199219 464.28125 343.21875 456.324219 344.542969 C 448.371094 345.867188 436.871094 337.910156 436.871094 337.910156 C 436.871094 337.910156 432.4375 261.34375 451.484375 245.429688 C 453.820312 241.804688 456.363281 238.320312 459.101562 234.988281 C 464.207031 228.804688 471.148438 221.835938 477.644531 220.121094 C 478.480469 219.894531 479.339844 219.761719 480.207031 219.730469 C 480.207031 219.730469 500.109375 208.667969 505.417969 217.074219 C 505.410156 217.105469 519.558594 216.660156 517.796875 232.148438 Z M 517.796875 232.148438 "/>
<use xlink:href="#surface47" mask="url(#mask14)"/>
<use xlink:href="#surface50" mask="url(#mask15)"/>
<path style=" stroke:none;fill-rule:nonzero;fill:rgb(14.117647%,74.117647%,78.823529%);fill-opacity:1;" d="M 456.273438 175.027344 L 408.796875 175.027344 C 404.375 175.027344 400.792969 171.441406 400.792969 167.019531 L 400.792969 119.511719 C 400.792969 115.089844 404.375 111.503906 408.796875 111.503906 L 456.273438 111.503906 C 460.691406 111.503906 464.273438 115.089844 464.273438 119.511719 L 464.273438 167.019531 C 464.273438 171.441406 460.691406 175.027344 456.273438 175.027344 Z M 456.273438 175.027344 "/>
<path style=" stroke:none;fill-rule:nonzero;fill:rgb(96.862745%,76.862745%,65.490196%);fill-opacity:1;" d="M 467.460938 168.707031 C 467.433594 170.796875 466.914062 172.851562 465.949219 174.707031 L 463.398438 179.628906 L 461.628906 183.007812 L 450.570312 183.890625 C 450.570312 183.890625 450.34375 182.980469 450.058594 181.472656 C 449.234375 177.046875 447.929688 167.484375 450.570312 160.882812 C 454.109375 152.03125 455.433594 134.769531 462.054688 138.757812 C 467.335938 141.933594 467.582031 160.984375 467.460938 168.707031 Z M 467.460938 168.707031 "/>
<use xlink:href="#surface53" mask="url(#mask16)"/>
<path style=" stroke:none;fill-rule:nonzero;fill:rgb(90.196078%,90.196078%,94.117647%);fill-opacity:1;" d="M 463.398438 180.371094 L 463.398438 188.359375 L 447.480469 196.765625 C 447.480469 196.765625 447.296875 195.328125 446.960938 193.460938 C 446.378906 190.265625 445.339844 185.816406 443.941406 185.265625 C 443.941406 185.242188 455.433594 178.601562 463.398438 180.371094 Z M 463.398438 180.371094 "/>
<use xlink:href="#surface56" mask="url(#mask17)"/>
<use xlink:href="#surface59" mask="url(#mask18)"/>
<path style=" stroke:none;fill-rule:nonzero;fill:rgb(34.117647%,34.901961%,53.333333%);fill-opacity:1;" d="M 465.167969 185.242188 C 465.167969 185.242188 453.226562 193.652344 443.054688 195.421875 L 463.84375 241.441406 C 463.84375 241.441406 464.605469 251.339844 492.597656 254.1875 C 497.792969 254.71875 502.976562 253.058594 506.894531 249.605469 C 512.027344 245.070312 517.417969 237.804688 513.8125 229.046875 C 507.617188 214.003906 486.832031 229.933594 486.832031 229.933594 C 486.832031 229.933594 465.605469 202.058594 465.167969 185.242188 Z M 465.167969 185.242188 "/>
<path style=" stroke:none;fill-rule:nonzero;fill:rgb(14.117647%,74.117647%,78.823529%);fill-opacity:1;" d="M 535.792969 482.742188 L 637.539062 482.742188 C 638.535156 482.742188 639.34375 483.546875 639.34375 484.546875 L 639.34375 490.398438 C 639.34375 491.394531 638.535156 492.203125 637.539062 492.203125 L 535.792969 492.203125 C 534.796875 492.203125 533.988281 491.394531 533.988281 490.398438 L 533.988281 484.546875 C 533.988281 483.546875 534.796875 482.742188 535.792969 482.742188 Z M 535.792969 482.742188 "/>
<path style=" stroke:none;fill-rule:nonzero;fill:rgb(14.117647%,74.117647%,78.823529%);fill-opacity:1;" d="M 524.3125 473.28125 L 626.058594 473.28125 C 627.054688 473.28125 627.863281 474.085938 627.863281 475.085938 L 627.863281 480.9375 C 627.863281 481.933594 627.054688 482.742188 626.058594 482.742188 L 524.3125 482.742188 C 523.316406 482.742188 522.507812 481.933594 522.507812 480.9375 L 522.507812 475.085938 C 522.507812 474.085938 523.316406 473.28125 524.3125 473.28125 Z M 524.3125 473.28125 "/>
<use xlink:href="#surface62" mask="url(#mask19)"/>
</g>
</svg>
